<mxfile host="65bd71144e">
    <diagram id="G4UaKEdFyLqZwnq5-ZMb" name="Page-1">
        <mxGraphModel dx="1072" dy="453" grid="1" gridSize="10" guides="1" tooltips="1" connect="1" arrows="1" fold="1" page="1" pageScale="1" pageWidth="850" pageHeight="1100" math="0" shadow="0">
            <root>
                <mxCell id="0"/>
                <mxCell id="1" parent="0"/>
                <mxCell id="3" value="" style="swimlane;startSize=0;fontStyle=1" parent="1" vertex="1">
                    <mxGeometry x="30" y="50" width="640" height="1310" as="geometry"/>
                </mxCell>
                <mxCell id="8" value="user&lt;br&gt;" style="text;strokeColor=none;fillColor=none;html=1;fontSize=24;fontStyle=1;verticalAlign=middle;align=center;" parent="3" vertex="1">
                    <mxGeometry x="80" y="10" width="100" height="40" as="geometry"/>
                </mxCell>
                <mxCell id="10" value="system" style="text;strokeColor=none;fillColor=none;html=1;fontSize=24;fontStyle=1;verticalAlign=middle;align=center;" parent="3" vertex="1">
                    <mxGeometry x="360" y="20" width="100" height="40" as="geometry"/>
                </mxCell>
                <mxCell id="11" value="" style="ellipse;html=1;shape=startState;fillColor=#000000;strokeColor=#ff0000;" parent="3" vertex="1">
                    <mxGeometry x="115" y="70" width="30" height="30" as="geometry"/>
                </mxCell>
                <mxCell id="12" value="" style="edgeStyle=orthogonalEdgeStyle;html=1;verticalAlign=bottom;endArrow=open;endSize=8;strokeColor=#ff0000;" parent="3" source="11" edge="1">
                    <mxGeometry relative="1" as="geometry">
                        <mxPoint x="130" y="160" as="targetPoint"/>
                    </mxGeometry>
                </mxCell>
                <mxCell id="13" value="login" style="ellipse;html=1;" parent="3" vertex="1">
                    <mxGeometry x="107.5" y="160" width="45" height="50" as="geometry"/>
                </mxCell>
                <mxCell id="30" style="edgeStyle=none;html=1;exitX=1;exitY=0;exitDx=0;exitDy=0;entryX=0.281;entryY=0.79;entryDx=0;entryDy=0;entryPerimeter=0;" parent="3" source="19" target="31" edge="1">
                    <mxGeometry relative="1" as="geometry">
                        <mxPoint x="480" y="227" as="targetPoint"/>
                    </mxGeometry>
                </mxCell>
                <mxCell id="19" value="enter email and password&lt;br&gt;" style="ellipse;html=1;" parent="3" vertex="1">
                    <mxGeometry x="89.38" y="290" width="152.5" height="50" as="geometry"/>
                </mxCell>
                <mxCell id="25" value="" style="endArrow=open;html=1;rounded=0;align=center;verticalAlign=top;endFill=0;labelBackgroundColor=none;endSize=6;entryX=0.285;entryY=0.06;entryDx=0;entryDy=0;entryPerimeter=0;" parent="3" target="19" edge="1">
                    <mxGeometry relative="1" as="geometry">
                        <mxPoint x="260" y="235" as="targetPoint"/>
                        <mxPoint x="130" y="220" as="sourcePoint"/>
                    </mxGeometry>
                </mxCell>
                <mxCell id="31" value="check &lt;br&gt;password" style="html=1;whiteSpace=wrap;aspect=fixed;shape=isoRectangle;" parent="3" vertex="1">
                    <mxGeometry x="440" y="130" width="97.5" height="58.5" as="geometry"/>
                </mxCell>
                <mxCell id="33" value="search product" style="ellipse;html=1;" parent="3" vertex="1">
                    <mxGeometry x="130" y="390" width="116.25" height="30" as="geometry"/>
                </mxCell>
                <mxCell id="36" value="" style="endArrow=open;html=1;rounded=0;align=center;verticalAlign=top;endFill=0;labelBackgroundColor=none;endSize=6;exitX=0.415;exitY=0.938;exitDx=0;exitDy=0;exitPerimeter=0;" parent="3" source="31" target="33" edge="1">
                    <mxGeometry relative="1" as="geometry">
                        <mxPoint x="440" y="385" as="sourcePoint"/>
                    </mxGeometry>
                </mxCell>
                <mxCell id="38" value="" style="endArrow=open;html=1;rounded=0;align=center;verticalAlign=top;endFill=0;labelBackgroundColor=none;endSize=6;" parent="3" source="31" target="13" edge="1">
                    <mxGeometry relative="1" as="geometry">
                        <mxPoint x="520" y="405" as="targetPoint"/>
                    </mxGeometry>
                </mxCell>
                <mxCell id="39" value="invalid" style="text;html=1;strokeColor=none;fillColor=none;align=center;verticalAlign=middle;whiteSpace=wrap;rounded=0;" parent="3" vertex="1">
                    <mxGeometry x="360" y="130" width="60" height="30" as="geometry"/>
                </mxCell>
                <mxCell id="40" value="valid" style="text;html=1;strokeColor=none;fillColor=none;align=center;verticalAlign=middle;whiteSpace=wrap;rounded=0;" parent="3" vertex="1">
                    <mxGeometry x="440" y="220" width="60" height="30" as="geometry"/>
                </mxCell>
                <mxCell id="45" style="edgeStyle=none;html=1;exitX=0.5;exitY=1;exitDx=0;exitDy=0;entryX=0.485;entryY=0;entryDx=0;entryDy=0;entryPerimeter=0;" parent="3" source="42" target="44" edge="1">
                    <mxGeometry relative="1" as="geometry"/>
                </mxCell>
                <mxCell id="42" value="add to cart" style="ellipse;html=1;" parent="3" vertex="1">
                    <mxGeometry x="115" y="555" width="130" height="30" as="geometry"/>
                </mxCell>
                <mxCell id="43" value="" style="endArrow=open;html=1;rounded=0;align=center;verticalAlign=top;endFill=0;labelBackgroundColor=none;endSize=6;exitX=0.5;exitY=1;exitDx=0;exitDy=0;" parent="3" source="33" target="75" edge="1">
                    <mxGeometry relative="1" as="geometry">
                        <mxPoint x="107.5" y="545" as="sourcePoint"/>
                    </mxGeometry>
                </mxCell>
                <mxCell id="44" value="choose" style="html=1;whiteSpace=wrap;aspect=fixed;shape=isoRectangle;" parent="3" vertex="1">
                    <mxGeometry x="130" y="640" width="68.12" height="40.87" as="geometry"/>
                </mxCell>
                <mxCell id="47" value="" style="endArrow=open;html=1;rounded=0;align=center;verticalAlign=top;endFill=0;labelBackgroundColor=none;endSize=6;exitX=0.133;exitY=0.489;exitDx=0;exitDy=0;exitPerimeter=0;entryX=0.5;entryY=0;entryDx=0;entryDy=0;entryPerimeter=0;" parent="3" source="44" target="69" edge="1">
                    <mxGeometry relative="1" as="geometry">
                        <mxPoint x="75" y="705" as="sourcePoint"/>
                        <mxPoint x="92.21429675452839" y="710.000579612737" as="targetPoint"/>
                        <Array as="points">
                            <mxPoint x="88" y="660"/>
                        </Array>
                    </mxGeometry>
                </mxCell>
                <mxCell id="53" style="edgeStyle=none;html=1;exitX=1.014;exitY=0.489;exitDx=0;exitDy=0;exitPerimeter=0;entryX=0.5;entryY=0;entryDx=0;entryDy=0;" parent="3" source="44" target="51" edge="1">
                    <mxGeometry relative="1" as="geometry">
                        <mxPoint x="240" y="690" as="targetPoint"/>
                        <Array as="points">
                            <mxPoint x="240" y="660"/>
                        </Array>
                    </mxGeometry>
                </mxCell>
                <mxCell id="59" style="edgeStyle=none;html=1;exitX=0.5;exitY=1;exitDx=0;exitDy=0;entryX=0.5;entryY=0;entryDx=0;entryDy=0;" parent="3" source="51" target="77" edge="1">
                    <mxGeometry relative="1" as="geometry">
                        <mxPoint x="464.375" y="550" as="targetPoint"/>
                    </mxGeometry>
                </mxCell>
                <mxCell id="51" value="make order" style="ellipse;html=1;" parent="3" vertex="1">
                    <mxGeometry x="200" y="740.35" width="90" height="50" as="geometry"/>
                </mxCell>
                <mxCell id="54" value="cancel" style="text;html=1;strokeColor=none;fillColor=none;align=center;verticalAlign=middle;whiteSpace=wrap;rounded=0;" parent="3" vertex="1">
                    <mxGeometry x="67.5" y="620" width="60" height="30" as="geometry"/>
                </mxCell>
                <mxCell id="55" value="buy" style="text;html=1;strokeColor=none;fillColor=none;align=center;verticalAlign=middle;whiteSpace=wrap;rounded=0;" parent="3" vertex="1">
                    <mxGeometry x="198.12" y="620" width="60" height="30" as="geometry"/>
                </mxCell>
                <mxCell id="82" style="edgeStyle=none;html=1;exitX=0.468;exitY=0.928;exitDx=0;exitDy=0;exitPerimeter=0;" parent="3" source="86" target="80" edge="1">
                    <mxGeometry relative="1" as="geometry">
                        <mxPoint x="486.55999999999995" y="720" as="sourcePoint"/>
                    </mxGeometry>
                </mxCell>
                <mxCell id="92" style="edgeStyle=none;html=1;exitX=1;exitY=0.5;exitDx=0;exitDy=0;entryX=0.019;entryY=0.56;entryDx=0;entryDy=0;entryPerimeter=0;" parent="3" source="60" target="91" edge="1">
                    <mxGeometry relative="1" as="geometry"/>
                </mxCell>
                <mxCell id="60" value="confirm order" style="ellipse;html=1;" parent="3" vertex="1">
                    <mxGeometry x="130" y="990" width="120" height="30" as="geometry"/>
                </mxCell>
                <mxCell id="68" style="edgeStyle=none;html=1;exitX=0.5;exitY=1;exitDx=0;exitDy=0;entryX=0.5;entryY=0;entryDx=0;entryDy=0;entryPerimeter=0;" parent="3" source="64" target="67" edge="1">
                    <mxGeometry relative="1" as="geometry"/>
                </mxCell>
                <mxCell id="64" value="logout" style="ellipse;html=1;" parent="3" vertex="1">
                    <mxGeometry x="58.44" y="1190" width="78.12" height="30" as="geometry"/>
                </mxCell>
                <mxCell id="67" value="" style="html=1;shape=mxgraph.sysml.flowFinal;strokeWidth=2;verticalLabelPosition=bottom;verticalAlignment=top;" parent="3" vertex="1">
                    <mxGeometry x="87.5" y="1250" width="40" height="40" as="geometry"/>
                </mxCell>
                <mxCell id="69" value="" style="html=1;shape=mxgraph.sysml.actFinal;strokeWidth=2;verticalLabelPosition=bottom;verticalAlignment=top;" parent="3" vertex="1">
                    <mxGeometry x="67.5" y="760" width="40" height="40" as="geometry"/>
                </mxCell>
                <mxCell id="75" value="check product &lt;br&gt;details&amp;nbsp;" style="ellipse;html=1;" parent="3" vertex="1">
                    <mxGeometry x="20" y="470" width="120" height="40" as="geometry"/>
                </mxCell>
                <mxCell id="76" value="" style="endArrow=open;html=1;rounded=0;align=center;verticalAlign=top;endFill=0;labelBackgroundColor=none;endSize=6;entryX=0.4;entryY=0.067;entryDx=0;entryDy=0;entryPerimeter=0;" parent="3" source="75" target="42" edge="1">
                    <mxGeometry relative="1" as="geometry">
                        <mxPoint x="132.5" y="485" as="targetPoint"/>
                    </mxGeometry>
                </mxCell>
                <mxCell id="79" style="edgeStyle=none;html=1;exitX=1;exitY=0;exitDx=0;exitDy=0;entryX=0.238;entryY=0.724;entryDx=0;entryDy=0;entryPerimeter=0;" parent="3" source="77" target="86" edge="1">
                    <mxGeometry relative="1" as="geometry">
                        <mxPoint x="462.71942897089684" y="717.1792350062656" as="targetPoint"/>
                    </mxGeometry>
                </mxCell>
                <mxCell id="77" value="add shipping &lt;br&gt;informations" style="ellipse;html=1;" parent="3" vertex="1">
                    <mxGeometry x="180" y="840" width="120" height="50" as="geometry"/>
                </mxCell>
                <mxCell id="83" style="edgeStyle=none;html=1;exitX=0;exitY=1;exitDx=0;exitDy=0;" parent="3" source="80" target="84" edge="1">
                    <mxGeometry relative="1" as="geometry"/>
                </mxCell>
                <mxCell id="80" value="processes &lt;br&gt;the payment" style="ellipse;html=1;" parent="3" vertex="1">
                    <mxGeometry x="448.75" y="890" width="110" height="40" as="geometry"/>
                </mxCell>
                <mxCell id="90" style="edgeStyle=none;html=1;exitX=0.5;exitY=1;exitDx=0;exitDy=0;entryX=0.5;entryY=0;entryDx=0;entryDy=0;" parent="3" source="84" target="60" edge="1">
                    <mxGeometry relative="1" as="geometry"/>
                </mxCell>
                <mxCell id="84" value="add payment &lt;br&gt;method" style="ellipse;html=1;" parent="3" vertex="1">
                    <mxGeometry x="170" y="910" width="100" height="50" as="geometry"/>
                </mxCell>
                <mxCell id="86" value="check &lt;br&gt;missing &lt;br&gt;info&amp;nbsp;" style="html=1;whiteSpace=wrap;aspect=fixed;shape=isoRectangle;" parent="3" vertex="1">
                    <mxGeometry x="427.92" y="640" width="122.08" height="73.25" as="geometry"/>
                </mxCell>
                <mxCell id="87" style="edgeStyle=none;html=1;exitX=0.009;exitY=0.532;exitDx=0;exitDy=0;exitPerimeter=0;" parent="3" source="86" target="77" edge="1">
                    <mxGeometry relative="1" as="geometry">
                        <mxPoint x="496.55999999999995" y="730" as="sourcePoint"/>
                        <mxPoint x="511.96147271838936" y="900.0105774408221" as="targetPoint"/>
                    </mxGeometry>
                </mxCell>
                <mxCell id="89" value="something is missing&amp;nbsp;" style="text;html=1;strokeColor=none;fillColor=none;align=center;verticalAlign=middle;whiteSpace=wrap;rounded=0;rotation=-45;" parent="3" vertex="1">
                    <mxGeometry x="325" y="710" width="60" height="30" as="geometry"/>
                </mxCell>
                <mxCell id="88" value="valid" style="text;html=1;strokeColor=none;fillColor=none;align=center;verticalAlign=middle;whiteSpace=wrap;rounded=0;rotation=75;" parent="3" vertex="1">
                    <mxGeometry x="485.67" y="737.5" width="60" height="20" as="geometry"/>
                </mxCell>
                <mxCell id="91" value="validate &lt;br&gt;payment&amp;nbsp;" style="html=1;whiteSpace=wrap;aspect=fixed;shape=isoRectangle;" parent="3" vertex="1">
                    <mxGeometry x="442.71000000000004" y="968.3800000000001" width="122.08" height="73.25" as="geometry"/>
                </mxCell>
                <mxCell id="93" style="edgeStyle=none;html=1;exitX=0.502;exitY=0;exitDx=0;exitDy=0;exitPerimeter=0;entryX=1;entryY=1;entryDx=0;entryDy=0;" parent="3" source="91" target="84" edge="1">
                    <mxGeometry relative="1" as="geometry">
                        <mxPoint x="474.8591270347399" y="934.1421356237308" as="sourcePoint"/>
                        <mxPoint x="279.8328760616175" y="942.9576690138683" as="targetPoint"/>
                    </mxGeometry>
                </mxCell>
                <mxCell id="94" value="invalid" style="text;html=1;strokeColor=none;fillColor=none;align=center;verticalAlign=middle;whiteSpace=wrap;rounded=0;rotation=15;" parent="3" vertex="1">
                    <mxGeometry x="380" y="938.38" width="60" height="30" as="geometry"/>
                </mxCell>
                <mxCell id="105" style="edgeStyle=none;html=1;exitX=0.5;exitY=1;exitDx=0;exitDy=0;" parent="3" source="96" target="104" edge="1">
                    <mxGeometry relative="1" as="geometry"/>
                </mxCell>
                <mxCell id="96" value="consider oreder" style="ellipse;html=1;" parent="3" vertex="1">
                    <mxGeometry x="420" y="1160" width="105" height="40" as="geometry"/>
                </mxCell>
                <mxCell id="97" value="" style="endArrow=open;html=1;rounded=0;align=center;verticalAlign=top;endFill=0;labelBackgroundColor=none;endSize=6;" parent="3" target="96" edge="1">
                    <mxGeometry relative="1" as="geometry">
                        <mxPoint x="460" y="1090" as="sourcePoint"/>
                    </mxGeometry>
                </mxCell>
                <mxCell id="98" value="" style="shape=link;html=1;width=7;" parent="3" edge="1">
                    <mxGeometry width="100" relative="1" as="geometry">
                        <mxPoint x="385" y="1094.5" as="sourcePoint"/>
                        <mxPoint x="521.6700000000001" y="1094.5" as="targetPoint"/>
                    </mxGeometry>
                </mxCell>
                <mxCell id="100" value="order &lt;br&gt;confirmed" style="ellipse;html=1;" parent="3" vertex="1">
                    <mxGeometry x="180" y="1140" width="70" height="50" as="geometry"/>
                </mxCell>
                <mxCell id="101" value="" style="endArrow=open;html=1;rounded=0;align=center;verticalAlign=top;endFill=0;labelBackgroundColor=none;endSize=6;entryX=1;entryY=0;entryDx=0;entryDy=0;" parent="3" source="100" target="64" edge="1">
                    <mxGeometry relative="1" as="geometry">
                        <mxPoint x="340" y="1145" as="targetPoint"/>
                    </mxGeometry>
                </mxCell>
                <mxCell id="103" value="valid" style="text;html=1;strokeColor=none;fillColor=none;align=center;verticalAlign=middle;whiteSpace=wrap;rounded=0;rotation=-45;" parent="3" vertex="1">
                    <mxGeometry x="425.66999999999996" y="1041.63" width="60" height="30" as="geometry"/>
                </mxCell>
                <mxCell id="104" value="" style="html=1;shape=mxgraph.sysml.actFinal;strokeWidth=2;verticalLabelPosition=bottom;verticalAlignment=top;" parent="3" vertex="1">
                    <mxGeometry x="455" y="1230" width="45" height="40" as="geometry"/>
                </mxCell>
                <mxCell id="4" value="user make order&amp;nbsp;" style="text;strokeColor=none;fillColor=none;html=1;fontSize=24;fontStyle=1;verticalAlign=middle;align=center;" parent="1" vertex="1">
                    <mxGeometry x="230" width="100" height="40" as="geometry"/>
                </mxCell>
                <mxCell id="7" value="" style="endArrow=none;html=1;entryX=0.5;entryY=0;entryDx=0;entryDy=0;exitX=0.5;exitY=1;exitDx=0;exitDy=0;" parent="1" source="3" target="3" edge="1">
                    <mxGeometry width="50" height="50" relative="1" as="geometry">
                        <mxPoint x="330" y="170" as="sourcePoint"/>
                        <mxPoint x="380" y="120" as="targetPoint"/>
                    </mxGeometry>
                </mxCell>
                <mxCell id="99" value="" style="endArrow=open;html=1;rounded=0;align=center;verticalAlign=top;endFill=0;labelBackgroundColor=none;endSize=6;exitX=0.478;exitY=1.01;exitDx=0;exitDy=0;exitPerimeter=0;" parent="1" source="91" edge="1">
                    <mxGeometry relative="1" as="geometry">
                        <mxPoint x="435" y="1365" as="sourcePoint"/>
                        <mxPoint x="460" y="1140" as="targetPoint"/>
                    </mxGeometry>
                </mxCell>
                <mxCell id="102" value="" style="endArrow=open;html=1;rounded=0;align=center;verticalAlign=top;endFill=0;labelBackgroundColor=none;endSize=6;entryX=1.043;entryY=0.38;entryDx=0;entryDy=0;entryPerimeter=0;" parent="1" target="100" edge="1">
                    <mxGeometry relative="1" as="geometry">
                        <mxPoint x="450" y="1150" as="sourcePoint"/>
                        <mxPoint x="509.83676668456815" y="1460.0257501342603" as="targetPoint"/>
                    </mxGeometry>
                </mxCell>
                <mxCell id="106" value="" style="swimlane;startSize=0;fontStyle=1" parent="1" vertex="1">
                    <mxGeometry x="880" y="70" width="880" height="1300" as="geometry"/>
                </mxCell>
                <mxCell id="107" value="user (seller)" style="text;strokeColor=none;fillColor=none;html=1;fontSize=24;fontStyle=1;verticalAlign=middle;align=center;" parent="106" vertex="1">
                    <mxGeometry x="80" y="10" width="100" height="40" as="geometry"/>
                </mxCell>
                <mxCell id="108" value="system" style="text;strokeColor=none;fillColor=none;html=1;fontSize=24;fontStyle=1;verticalAlign=middle;align=center;" parent="106" vertex="1">
                    <mxGeometry x="453.75" y="10" width="100" height="40" as="geometry"/>
                </mxCell>
                <mxCell id="109" value="" style="ellipse;html=1;shape=startState;fillColor=#000000;strokeColor=#ff0000;" parent="106" vertex="1">
                    <mxGeometry x="115" y="70" width="30" height="30" as="geometry"/>
                </mxCell>
                <mxCell id="110" value="" style="edgeStyle=orthogonalEdgeStyle;html=1;verticalAlign=bottom;endArrow=open;endSize=8;strokeColor=#ff0000;" parent="106" source="109" edge="1">
                    <mxGeometry relative="1" as="geometry">
                        <mxPoint x="130" y="160" as="targetPoint"/>
                    </mxGeometry>
                </mxCell>
                <mxCell id="111" value="login" style="ellipse;html=1;" parent="106" vertex="1">
                    <mxGeometry x="107.5" y="160" width="45" height="50" as="geometry"/>
                </mxCell>
                <mxCell id="112" style="edgeStyle=none;html=1;exitX=1;exitY=0;exitDx=0;exitDy=0;entryX=0.281;entryY=0.79;entryDx=0;entryDy=0;entryPerimeter=0;" parent="106" source="113" target="115" edge="1">
                    <mxGeometry relative="1" as="geometry">
                        <mxPoint x="480" y="227" as="targetPoint"/>
                    </mxGeometry>
                </mxCell>
                <mxCell id="113" value="enter email and password&lt;br&gt;" style="ellipse;html=1;" parent="106" vertex="1">
                    <mxGeometry x="89.38" y="290" width="152.5" height="50" as="geometry"/>
                </mxCell>
                <mxCell id="114" value="" style="endArrow=open;html=1;rounded=0;align=center;verticalAlign=top;endFill=0;labelBackgroundColor=none;endSize=6;entryX=0.285;entryY=0.06;entryDx=0;entryDy=0;entryPerimeter=0;" parent="106" target="113" edge="1">
                    <mxGeometry relative="1" as="geometry">
                        <mxPoint x="260" y="235" as="targetPoint"/>
                        <mxPoint x="130" y="220" as="sourcePoint"/>
                    </mxGeometry>
                </mxCell>
                <mxCell id="115" value="check &lt;br&gt;password" style="html=1;whiteSpace=wrap;aspect=fixed;shape=isoRectangle;" parent="106" vertex="1">
                    <mxGeometry x="440" y="130" width="97.5" height="58.5" as="geometry"/>
                </mxCell>
                <mxCell id="116" value="switch&amp;nbsp; to &lt;br&gt;seller mode" style="ellipse;html=1;" parent="106" vertex="1">
                    <mxGeometry x="130" y="390" width="116.25" height="30" as="geometry"/>
                </mxCell>
                <mxCell id="117" value="" style="endArrow=open;html=1;rounded=0;align=center;verticalAlign=top;endFill=0;labelBackgroundColor=none;endSize=6;exitX=0.415;exitY=0.938;exitDx=0;exitDy=0;exitPerimeter=0;" parent="106" source="115" target="116" edge="1">
                    <mxGeometry relative="1" as="geometry">
                        <mxPoint x="440" y="385" as="sourcePoint"/>
                    </mxGeometry>
                </mxCell>
                <mxCell id="118" value="" style="endArrow=open;html=1;rounded=0;align=center;verticalAlign=top;endFill=0;labelBackgroundColor=none;endSize=6;" parent="106" source="115" target="111" edge="1">
                    <mxGeometry relative="1" as="geometry">
                        <mxPoint x="520" y="405" as="targetPoint"/>
                    </mxGeometry>
                </mxCell>
                <mxCell id="119" value="invalid" style="text;html=1;strokeColor=none;fillColor=none;align=center;verticalAlign=middle;whiteSpace=wrap;rounded=0;" parent="106" vertex="1">
                    <mxGeometry x="360" y="130" width="60" height="30" as="geometry"/>
                </mxCell>
                <mxCell id="120" value="valid" style="text;html=1;strokeColor=none;fillColor=none;align=center;verticalAlign=middle;whiteSpace=wrap;rounded=0;" parent="106" vertex="1">
                    <mxGeometry x="440" y="220" width="60" height="30" as="geometry"/>
                </mxCell>
                <mxCell id="121" style="edgeStyle=none;html=1;exitX=0.5;exitY=1;exitDx=0;exitDy=0;" parent="106" source="122" target="165" edge="1">
                    <mxGeometry relative="1" as="geometry"/>
                </mxCell>
                <mxCell id="122" value="display&amp;nbsp; details input&amp;nbsp;" style="ellipse;html=1;" parent="106" vertex="1">
                    <mxGeometry x="402.5" y="475" width="140" height="30" as="geometry"/>
                </mxCell>
                <mxCell id="123" value="" style="endArrow=open;html=1;rounded=0;align=center;verticalAlign=top;endFill=0;labelBackgroundColor=none;endSize=6;exitX=0.5;exitY=1;exitDx=0;exitDy=0;" parent="106" source="116" target="138" edge="1">
                    <mxGeometry relative="1" as="geometry">
                        <mxPoint x="107.5" y="545" as="sourcePoint"/>
                    </mxGeometry>
                </mxCell>
                <mxCell id="136" value="" style="html=1;shape=mxgraph.sysml.flowFinal;strokeWidth=2;verticalLabelPosition=bottom;verticalAlignment=top;" parent="106" vertex="1">
                    <mxGeometry x="452.5" y="880" width="40" height="40" as="geometry"/>
                </mxCell>
                <mxCell id="138" value="add product&amp;nbsp;" style="ellipse;html=1;" parent="106" vertex="1">
                    <mxGeometry x="20" y="470" width="120" height="40" as="geometry"/>
                </mxCell>
                <mxCell id="139" value="" style="endArrow=open;html=1;rounded=0;align=center;verticalAlign=top;endFill=0;labelBackgroundColor=none;endSize=6;entryX=0;entryY=0.5;entryDx=0;entryDy=0;" parent="106" source="138" target="122" edge="1">
                    <mxGeometry relative="1" as="geometry">
                        <mxPoint x="132.5" y="485" as="targetPoint"/>
                    </mxGeometry>
                </mxCell>
                <mxCell id="146" value="check &lt;br&gt;seller if&amp;nbsp; marked as verified&amp;nbsp;" style="html=1;whiteSpace=wrap;aspect=fixed;shape=isoRectangle;" parent="106" vertex="1">
                    <mxGeometry x="436.67" y="550" width="122.08" height="73.25" as="geometry"/>
                </mxCell>
                <mxCell id="167" style="edgeStyle=none;html=1;exitX=1;exitY=0.5;exitDx=0;exitDy=0;" edge="1" parent="106" source="165" target="146">
                    <mxGeometry relative="1" as="geometry">
                        <mxPoint x="680" y="580" as="targetPoint"/>
                    </mxGeometry>
                </mxCell>
                <mxCell id="165" value="fill input" style="ellipse;html=1;" vertex="1" parent="106">
                    <mxGeometry x="67.5" y="580" width="120" height="40" as="geometry"/>
                </mxCell>
                <mxCell id="175" style="edgeStyle=none;html=1;exitX=0.5;exitY=1;exitDx=0;exitDy=0;" edge="1" parent="106" source="166" target="174">
                    <mxGeometry relative="1" as="geometry"/>
                </mxCell>
                <mxCell id="166" value="review product" style="ellipse;html=1;" vertex="1" parent="106">
                    <mxGeometry x="710" y="540" width="120" height="40" as="geometry"/>
                </mxCell>
                <mxCell id="180" style="edgeStyle=none;html=1;exitX=1;exitY=1;exitDx=0;exitDy=0;" edge="1" parent="106" source="168" target="179">
                    <mxGeometry relative="1" as="geometry"/>
                </mxCell>
                <mxCell id="168" value="product approved" style="ellipse;html=1;" vertex="1" parent="106">
                    <mxGeometry x="60" y="720" width="120" height="40" as="geometry"/>
                </mxCell>
                <mxCell id="169" style="edgeStyle=none;html=1;entryX=1;entryY=0;entryDx=0;entryDy=0;exitX=0.24;exitY=0.696;exitDx=0;exitDy=0;exitPerimeter=0;" edge="1" parent="106" source="146" target="168">
                    <mxGeometry relative="1" as="geometry">
                        <mxPoint x="197.5" y="610" as="sourcePoint"/>
                        <mxPoint x="446.6700000000001" y="599.2567978143838" as="targetPoint"/>
                    </mxGeometry>
                </mxCell>
                <mxCell id="170" value="verified" style="text;html=1;strokeColor=none;fillColor=none;align=center;verticalAlign=middle;whiteSpace=wrap;rounded=0;rotation=-30;" vertex="1" parent="106">
                    <mxGeometry x="280" y="635" width="60" height="30" as="geometry"/>
                </mxCell>
                <mxCell id="171" value="first time" style="text;html=1;strokeColor=none;fillColor=none;align=center;verticalAlign=middle;whiteSpace=wrap;rounded=0;rotation=0;" vertex="1" parent="106">
                    <mxGeometry x="570" y="545" width="60" height="30" as="geometry"/>
                </mxCell>
                <mxCell id="172" style="edgeStyle=none;html=1;exitX=0.969;exitY=0.491;exitDx=0;exitDy=0;exitPerimeter=0;" edge="1" parent="106" source="146" target="166">
                    <mxGeometry relative="1" as="geometry">
                        <mxPoint x="475.9692" y="610.982" as="sourcePoint"/>
                        <mxPoint x="190" y="750" as="targetPoint"/>
                    </mxGeometry>
                </mxCell>
                <mxCell id="174" value="approval status" style="html=1;whiteSpace=wrap;aspect=fixed;shape=isoRectangle;" vertex="1" parent="106">
                    <mxGeometry x="707.9200000000001" y="646.75" width="122.08" height="73.25" as="geometry"/>
                </mxCell>
                <mxCell id="177" value="good" style="text;html=1;strokeColor=none;fillColor=none;align=center;verticalAlign=middle;whiteSpace=wrap;rounded=0;rotation=0;" vertex="1" parent="106">
                    <mxGeometry x="420" y="680" width="60" height="30" as="geometry"/>
                </mxCell>
                <mxCell id="178" style="edgeStyle=none;html=1;exitX=0.509;exitY=0.973;exitDx=0;exitDy=0;exitPerimeter=0;entryX=0.5;entryY=0;entryDx=0;entryDy=0;entryPerimeter=0;" edge="1" parent="106" source="174" target="183">
                    <mxGeometry relative="1" as="geometry">
                        <mxPoint x="719.9953599999999" y="690.0055" as="sourcePoint"/>
                        <mxPoint x="182.42640687119274" y="745.8578643762689" as="targetPoint"/>
                    </mxGeometry>
                </mxCell>
                <mxCell id="182" style="edgeStyle=none;html=1;exitX=0.5;exitY=1;exitDx=0;exitDy=0;" edge="1" parent="106" source="179">
                    <mxGeometry relative="1" as="geometry">
                        <mxPoint x="473" y="880" as="targetPoint"/>
                    </mxGeometry>
                </mxCell>
                <mxCell id="179" value="product listed at &lt;br&gt;platform" style="ellipse;html=1;" vertex="1" parent="106">
                    <mxGeometry x="420" y="770" width="120" height="40" as="geometry"/>
                </mxCell>
                <mxCell id="183" value="" style="html=1;shape=mxgraph.sysml.actFinal;strokeWidth=2;verticalLabelPosition=bottom;verticalAlignment=top;" vertex="1" parent="106">
                    <mxGeometry x="760" y="810" width="45" height="40" as="geometry"/>
                </mxCell>
                <mxCell id="223" value="delete" style="text;html=1;strokeColor=none;fillColor=none;align=center;verticalAlign=middle;whiteSpace=wrap;rounded=0;rotation=90;" vertex="1" parent="106">
                    <mxGeometry x="760" y="740" width="70" height="30" as="geometry"/>
                </mxCell>
                <mxCell id="161" value="List a product" style="text;strokeColor=none;fillColor=none;html=1;fontSize=24;fontStyle=1;verticalAlign=middle;align=center;" parent="1" vertex="1">
                    <mxGeometry x="1140" y="10" width="100" height="40" as="geometry"/>
                </mxCell>
                <mxCell id="162" value="" style="endArrow=none;html=1;entryX=0.411;entryY=0;entryDx=0;entryDy=0;exitX=0.399;exitY=1.003;exitDx=0;exitDy=0;entryPerimeter=0;exitPerimeter=0;" parent="1" source="106" target="106" edge="1">
                    <mxGeometry width="50" height="50" relative="1" as="geometry">
                        <mxPoint x="970" y="150" as="sourcePoint"/>
                        <mxPoint x="1020" y="100" as="targetPoint"/>
                    </mxGeometry>
                </mxCell>
                <mxCell id="163" value="" style="endArrow=none;html=1;entryX=0.75;entryY=0;entryDx=0;entryDy=0;exitX=0.75;exitY=1;exitDx=0;exitDy=0;" parent="1" source="106" target="106" edge="1">
                    <mxGeometry width="50" height="50" relative="1" as="geometry">
                        <mxPoint x="1213.19" y="1383.8999999999999" as="sourcePoint"/>
                        <mxPoint x="1222.9099999999999" y="80" as="targetPoint"/>
                    </mxGeometry>
                </mxCell>
                <mxCell id="164" value="admin" style="text;strokeColor=none;fillColor=none;html=1;fontSize=24;fontStyle=1;verticalAlign=middle;align=center;" parent="1" vertex="1">
                    <mxGeometry x="1573.75" y="85" width="100" height="40" as="geometry"/>
                </mxCell>
                <mxCell id="176" style="edgeStyle=none;html=1;entryX=1;entryY=0;entryDx=0;entryDy=0;exitX=0.017;exitY=0.454;exitDx=0;exitDy=0;exitPerimeter=0;" edge="1" parent="1" source="174">
                    <mxGeometry relative="1" as="geometry">
                        <mxPoint x="1355.9692" y="680.982" as="sourcePoint"/>
                        <mxPoint x="1052.4264068711927" y="805.8578643762689" as="targetPoint"/>
                    </mxGeometry>
                </mxCell>
            </root>
        </mxGraphModel>
    </diagram>
</mxfile>